M48
; DRILL file {KiCad (5.1.6)-1} date 11/18/25 13:36:33
; FORMAT={-:-/ absolute / metric / decimal}
; #@! TF.CreationDate,2025-11-18T13:36:33-05:00
; #@! TF.GenerationSoftware,Kicad,Pcbnew,(5.1.6)-1
FMAT,2
METRIC
T1C0.800
T2C0.900
T3C3.200
%
G90
G05
T1
X7.62Y33.02
X7.62Y16.51
X12.44Y82.55
X13.97Y60.96
X14.199Y50.8
X17.272Y47.752
X19.05Y80.94
X22.86Y82.55
X22.86Y35.56
X25.4Y82.55
X25.4Y35.56
X27.94Y36.83
X30.48Y39.37
X30.67Y78.74
X33.02Y80.645
X35.56Y78.74
X41.91Y82.55
X44.45Y82.55
X45.007Y60.909
X45.72Y33.02
X45.72Y17.78
X48.26Y39.37
X48.26Y33.02
X48.26Y17.78
X50.8Y60.96
X50.8Y36.83
X50.8Y33.02
X50.8Y17.78
X51.435Y47.879
X53.1Y17.78
X53.2Y33.02
X57.15Y80.645
X58.166Y21.082
X58.42Y12.7
X62.202Y60.353
X62.23Y78.74
X62.23Y45.466
X69.71Y80.645
X69.85Y60.325
X73.66Y45.466
X76.2Y78.74
X80.747Y55.321
X80.772Y48.006
X80.823Y57.785
X82.779Y21.996
X82.804Y48.006
X86.36Y82.55
X90.17Y57.785
X6.36Y43.18
X10.16Y43.18
X13.97Y72.39
X13.97Y69.85
X59.69Y48.006
X67.31Y48.006
X60.96Y31.496
X60.96Y23.876
X58.42Y42.926
X58.42Y35.306
X60.96Y42.926
X60.96Y35.306
X76.2Y31.496
X76.2Y23.876
X8.89Y54.61
X8.89Y52.07
X20.32Y64.77
X22.86Y64.77
X25.4Y64.77
X27.94Y64.77
X30.48Y64.77
X33.02Y64.77
X63.5Y31.496
X63.5Y23.876
X10.16Y33.02
X10.16Y17.78
X12.7Y33.02
X12.7Y17.78
X15.24Y33.02
X15.24Y17.78
X17.78Y33.02
X17.78Y17.78
X20.32Y33.02
X20.32Y17.78
X22.86Y33.02
X22.86Y17.78
X25.4Y33.02
X25.4Y17.78
X27.94Y33.02
X27.94Y17.78
X30.48Y33.02
X30.48Y17.78
X33.02Y33.02
X33.02Y17.78
X35.56Y33.02
X35.56Y17.78
X38.1Y33.02
X38.1Y17.78
X40.64Y33.02
X40.64Y17.78
X43.18Y33.02
X43.18Y17.78
X71.12Y48.006
X78.74Y48.006
X62.25Y12.7
X64.75Y12.7
X15.24Y44.45
X22.86Y44.45
X71.12Y42.926
X71.12Y35.306
X73.66Y42.926
X73.66Y35.306
X46.99Y64.77
X49.53Y64.77
X52.07Y64.77
X54.61Y64.77
X57.15Y64.77
X59.69Y64.77
X62.23Y64.77
X64.77Y64.77
X67.31Y64.77
X69.85Y64.77
X64.77Y42.926
X64.77Y35.306
X67.31Y42.926
X67.31Y35.306
X68.58Y12.7
X76.2Y12.7
X38.1Y72.39
X38.1Y64.77
X77.47Y42.926
X77.47Y35.306
X80.01Y42.926
X80.01Y35.306
X73.66Y31.496
X73.66Y23.876
T2
X17.78Y59.69
X17.78Y50.8
X33.02Y59.69
X33.02Y50.8
X38.1Y78.74
X38.1Y76.2
X53.34Y86.36
X57.15Y86.36
X60.96Y86.36
X87.63Y11.43
X90.17Y11.43
X92.71Y11.43
X5.08Y74.93
X5.08Y71.12
X68.58Y86.36
X72.39Y86.36
X76.2Y86.36
X30.48Y86.36
X34.29Y86.36
X38.1Y86.36
X41.91Y86.36
X87.63Y63.5
X90.17Y63.5
X92.71Y63.5
X87.63Y43.18
X90.17Y43.18
X92.71Y43.18
X64.77Y57.785
X67.31Y57.785
X87.63Y22.86
X90.17Y22.86
X92.71Y22.86
X86.36Y86.36
X90.17Y86.36
X93.98Y86.36
X87.63Y53.34
X90.17Y53.34
X92.71Y53.34
X8.89Y63.5
X8.89Y60.96
X11.43Y86.36
X15.24Y86.36
X19.05Y86.36
X22.86Y86.36
X12.7Y6.35
X15.24Y6.35
X17.78Y6.35
X20.32Y6.35
X22.86Y6.35
X25.4Y6.35
X27.94Y6.35
X30.48Y6.35
X59.055Y57.785
X61.595Y57.785
X87.63Y33.02
X90.17Y33.02
X92.71Y33.02
X87.63Y73.66
X90.17Y73.66
X92.71Y73.66
X77.216Y57.785
X77.216Y55.245
T3
X96.52Y3.81
X96.52Y80.01
X3.81Y3.81
X3.81Y87.63
T0
M30
