M48
FMAT,2
METRIC
T1C0.800
T2C0.900
T3C2.000
%
G90
G05
T1
X48.26Y6.35
X50.8Y6.35
X53.34Y6.35
X53.34Y10.16
X22.86Y10.16
X3.81Y12.7
X26.67Y12.7
X39.37Y12.7
X41.91Y12.7
X15.24Y12.7
X22.86Y12.7
X53.34Y15.24
X50.8Y15.24
X48.26Y15.24
X39.37Y15.24
X29.21Y15.24
X6.35Y19.05
X8.89Y19.05
X11.43Y19.05
X13.97Y19.05
X16.51Y19.05
X19.05Y19.05
X21.59Y19.05
X24.13Y19.05
X26.67Y19.05
X29.21Y19.05
X31.75Y19.05
X34.29Y19.05
X36.83Y19.05
X39.37Y19.05
X29.21Y22.86
X21.59Y22.86
X48.26Y24.13
X29.21Y25.4
X21.59Y25.4
X48.26Y26.67
X44.45Y27.305
X48.26Y29.21
X48.26Y31.75
X19.05Y31.75
X13.97Y31.75
X3.81Y34.29
X41.91Y34.29
X6.35Y34.29
X8.89Y34.29
X11.43Y34.29
X13.97Y34.29
X16.51Y34.29
X19.05Y34.29
X21.59Y34.29
X24.13Y34.29
X26.67Y34.29
X29.21Y34.29
X31.75Y34.29
X34.29Y34.29
X36.83Y34.29
X39.37Y34.29
X48.26Y34.29
X48.26Y36.83
X44.45Y40.64
X39.37Y41.91
X36.83Y41.91
X34.29Y41.91
X31.75Y41.91
X6.35Y46.99
X10.15Y46.99
X14.21Y46.99
X16.51Y46.99
X27.305Y51.435
X31.75Y53.34
X39.37Y53.34
X43.18Y55.88
X39.37Y55.88
X31.75Y55.88
X17.78Y55.88
X10.16Y55.88
X27.305Y60.96
X31.75Y60.96
X39.37Y60.96
X10.16Y60.96
X17.78Y60.96
X43.18Y63.5
X39.37Y63.5
X31.75Y63.5
T2
X21.59Y5.08
X24.13Y5.08
X26.67Y5.08
X29.21Y5.08
X31.75Y5.08
X34.29Y5.08
X36.83Y5.08
X39.37Y5.08
X59.69Y10.16
X59.69Y12.7
X59.69Y43.18
X59.69Y45.72
X59.69Y48.26
X59.69Y50.8
X59.69Y54.61
X59.69Y57.15
X59.69Y59.69
T3
X62.23Y3.81
X3.81Y3.81
X62.23Y64.77
X3.81Y64.77
G05
T0
M30
