%TF.GenerationSoftware,KiCad,Pcbnew,(5.1.6)-1*%
%TF.CreationDate,2026-02-13T11:42:24-05:00*%
%TF.ProjectId,windTester,77696e64-5465-4737-9465-722e6b696361,rev?*%
%TF.SameCoordinates,PX18392c0PY54c81a0*%
%TF.FileFunction,Soldermask,Bot*%
%TF.FilePolarity,Negative*%
%FSLAX46Y46*%
G04 Gerber Fmt 4.6, Leading zero omitted, Abs format (unit mm)*
G04 Created by KiCad (PCBNEW (5.1.6)-1) date 2026-02-13 11:42:24*
%MOMM*%
%LPD*%
G01*
G04 APERTURE LIST*
%ADD10C,2.600000*%
%ADD11C,2.300000*%
%ADD12C,2.100000*%
G04 APERTURE END LIST*
D10*
%TO.C,REF\u002A\u002A*%
X2540000Y2540000D03*
%TD*%
%TO.C,REF\u002A\u002A*%
X34290000Y2540000D03*
%TD*%
%TO.C,REF\u002A\u002A*%
X34290000Y64770000D03*
%TD*%
%TO.C,REF\u002A\u002A*%
X2540000Y64770000D03*
%TD*%
D11*
%TO.C,R1*%
X13970000Y17780000D03*
X13970000Y25400000D03*
%TD*%
D12*
%TO.C,C1*%
X8890000Y15280000D03*
X8890000Y17780000D03*
%TD*%
%TO.C,C2*%
X29210000Y38100000D03*
X29210000Y40600000D03*
%TD*%
%TO.C,C3*%
X19050000Y35560000D03*
X16550000Y35560000D03*
%TD*%
D11*
%TO.C,R2*%
X11430000Y25400000D03*
X11430000Y17780000D03*
%TD*%
%TO.C,R3*%
X13970000Y27940000D03*
X13970000Y35560000D03*
%TD*%
%TO.C,R4*%
X11430000Y27940000D03*
X11430000Y35560000D03*
%TD*%
%TO.C,R5*%
X24130000Y27940000D03*
X24130000Y35560000D03*
%TD*%
%TO.C,R6*%
X26670000Y35560000D03*
X26670000Y27940000D03*
%TD*%
%TO.C,R7*%
X29210000Y27940000D03*
X29210000Y35560000D03*
%TD*%
%TO.C,R8*%
X26670000Y55880000D03*
X19050000Y55880000D03*
%TD*%
%TO.C,R9*%
X26670000Y58420000D03*
X19050000Y58420000D03*
%TD*%
%TO.C,R10*%
X19050000Y53340000D03*
X26670000Y53340000D03*
%TD*%
%TO.C,R11*%
X10160000Y53340000D03*
X10160000Y60960000D03*
%TD*%
%TO.C,R12*%
X7620000Y60960000D03*
X7620000Y53340000D03*
%TD*%
%TO.C,R13*%
X26670000Y11430000D03*
X26670000Y19050000D03*
%TD*%
%TO.C,R14*%
X24130000Y19050000D03*
X24130000Y11430000D03*
%TD*%
%TO.C,U1*%
X11430000Y43180000D03*
X13970000Y43180000D03*
X26670000Y50800000D03*
X16510000Y43180000D03*
X24130000Y50800000D03*
X19050000Y43180000D03*
X21590000Y50800000D03*
X21590000Y43180000D03*
X19050000Y50800000D03*
X24130000Y43180000D03*
X16510000Y50800000D03*
X26670000Y43180000D03*
X13970000Y50800000D03*
X11430000Y50800000D03*
%TD*%
%TO.C,Q1*%
X26670000Y22860000D03*
X29210000Y22860000D03*
X24130000Y22860000D03*
%TD*%
%TO.C,J1*%
X10160000Y5080000D03*
X10160000Y7620000D03*
X10160000Y10160000D03*
%TD*%
%TO.C,J2*%
X5080000Y27940000D03*
X5080000Y25400000D03*
X5080000Y22860000D03*
%TD*%
%TO.C,J3*%
X29210000Y5080000D03*
X26670000Y5080000D03*
X24130000Y5080000D03*
X21590000Y5080000D03*
X19050000Y5080000D03*
%TD*%
D12*
X31750000Y55880000D03*
X31750000Y38100000D03*
X16510000Y11430000D03*
X16510000Y27940000D03*
X29210000Y58420000D03*
X29210000Y46990000D03*
X19050000Y11430000D03*
X19050000Y25400000D03*
X21590000Y11430000D03*
X21590000Y25400000D03*
X7620000Y40640000D03*
X26670000Y40640000D03*
X7620000Y33020000D03*
X7620000Y38100000D03*
X5080000Y50800000D03*
X5080000Y33020000D03*
X11430000Y38100000D03*
X21450010Y37960010D03*
X12700000Y60960000D03*
X24130000Y60960000D03*
M02*
