M48
; DRILL file {KiCad (5.1.6)-1} date 02/13/26 11:42:33
; FORMAT={-:-/ absolute / metric / decimal}
; #@! TF.CreationDate,2026-02-13T11:42:33-05:00
; #@! TF.GenerationSoftware,Kicad,Pcbnew,(5.1.6)-1
FMAT,2
METRIC
T1C0.800
T2C0.900
T3C2.500
%
G90
G05
T1
X5.08Y50.8
X5.08Y33.02
X7.62Y40.64
X7.62Y38.1
X7.62Y33.02
X11.43Y38.1
X12.7Y60.96
X16.51Y27.94
X16.51Y11.43
X19.05Y25.4
X19.05Y11.43
X21.45Y37.96
X21.59Y25.4
X21.59Y11.43
X24.13Y60.96
X26.67Y40.64
X29.21Y58.42
X29.21Y46.99
X31.75Y55.88
X31.75Y38.1
X8.89Y17.78
X8.89Y15.28
X11.43Y25.4
X11.43Y17.78
X11.43Y35.56
X11.43Y27.94
X19.05Y53.34
X26.67Y53.34
X24.13Y22.86
X26.67Y22.86
X29.21Y22.86
X19.05Y58.42
X26.67Y58.42
X16.55Y35.56
X19.05Y35.56
X26.67Y35.56
X26.67Y27.94
X11.43Y50.8
X11.43Y43.18
X13.97Y50.8
X13.97Y43.18
X16.51Y50.8
X16.51Y43.18
X19.05Y50.8
X19.05Y43.18
X21.59Y50.8
X21.59Y43.18
X24.13Y50.8
X24.13Y43.18
X26.67Y50.8
X26.67Y43.18
X29.21Y35.56
X29.21Y27.94
X24.13Y35.56
X24.13Y27.94
X7.62Y60.96
X7.62Y53.34
X29.21Y40.6
X29.21Y38.1
X13.97Y25.4
X13.97Y17.78
X26.67Y19.05
X26.67Y11.43
X19.05Y55.88
X26.67Y55.88
X24.13Y19.05
X24.13Y11.43
X10.16Y60.96
X10.16Y53.34
X13.97Y35.56
X13.97Y27.94
T2
X5.08Y27.94
X5.08Y25.4
X5.08Y22.86
X19.05Y5.08
X21.59Y5.08
X24.13Y5.08
X26.67Y5.08
X29.21Y5.08
X10.16Y10.16
X10.16Y7.62
X10.16Y5.08
T3
X34.29Y64.77
X2.54Y2.54
X34.29Y2.54
X2.54Y64.77
T0
M30
