%TF.GenerationSoftware,KiCad,Pcbnew,(5.1.6)-1*%
%TF.CreationDate,2025-09-03T10:16:23-05:00*%
%TF.ProjectId,initial_board_with_led,696e6974-6961-46c5-9f62-6f6172645f77,rev?*%
%TF.SameCoordinates,PX17031d0PY5d42830*%
%TF.FileFunction,Copper,L2,Bot*%
%TF.FilePolarity,Positive*%
%FSLAX46Y46*%
G04 Gerber Fmt 4.6, Leading zero omitted, Abs format (unit mm)*
G04 Created by KiCad (PCBNEW (5.1.6)-1) date 2025-09-03 10:16:23*
%MOMM*%
%LPD*%
G01*
G04 APERTURE LIST*
%TA.AperFunction,ComponentPad*%
%ADD10C,2.200000*%
%TD*%
%TA.AperFunction,Conductor*%
%ADD11C,1.500000*%
%TD*%
%TA.AperFunction,Conductor*%
%ADD12C,2.200000*%
%TD*%
%TA.AperFunction,Conductor*%
%ADD13C,0.250000*%
%TD*%
G04 APERTURE END LIST*
D10*
%TO.P,REF\u002A\u002A,2*%
%TO.N,N/C*%
X8890000Y8255000D03*
%TO.P,REF\u002A\u002A,1*%
%TO.N,GND*%
X6350000Y8255000D03*
%TD*%
%TO.P,REF\u002A\u002A,2*%
%TO.N,Net-(U1-Pad4)*%
X12700000Y15240000D03*
%TO.P,REF\u002A\u002A,1*%
%TO.N,N/C*%
X12700000Y7620000D03*
%TD*%
D11*
%TO.N,*%
X8890000Y8255000D02*
X12065000Y8255000D01*
X12065000Y8255000D02*
X12700000Y7620000D01*
D12*
%TO.N,Net-(U1-Pad4)*%
X13970000Y19050000D02*
X13970000Y16510000D01*
D11*
X13970000Y16510000D02*
X12700000Y15240000D01*
%TD*%
D13*
%TO.N,GND*%
G36*
X65565001Y475000D02*
G01*
X475000Y475000D01*
X475000Y8405199D01*
X7365000Y8405199D01*
X7365000Y8104801D01*
X7423605Y7810174D01*
X7538562Y7532642D01*
X7705455Y7282869D01*
X7917869Y7070455D01*
X8167642Y6903562D01*
X8445174Y6788605D01*
X8739801Y6730000D01*
X9040199Y6730000D01*
X9334826Y6788605D01*
X9612358Y6903562D01*
X9862131Y7070455D01*
X9871676Y7080000D01*
X11273027Y7080000D01*
X11348562Y6897642D01*
X11515455Y6647869D01*
X11727869Y6435455D01*
X11977642Y6268562D01*
X12255174Y6153605D01*
X12549801Y6095000D01*
X12850199Y6095000D01*
X13144826Y6153605D01*
X13422358Y6268562D01*
X13672131Y6435455D01*
X13884545Y6647869D01*
X14051438Y6897642D01*
X14166395Y7175174D01*
X14225000Y7469801D01*
X14225000Y7770199D01*
X14166395Y8064826D01*
X14051438Y8342358D01*
X13884545Y8592131D01*
X13672131Y8804545D01*
X13422358Y8971438D01*
X13144826Y9086395D01*
X12850199Y9145000D01*
X12832694Y9145000D01*
X12720953Y9236704D01*
X12516829Y9345811D01*
X12295340Y9412998D01*
X12122720Y9430000D01*
X12122712Y9430000D01*
X12065000Y9435684D01*
X12007288Y9430000D01*
X9871676Y9430000D01*
X9862131Y9439545D01*
X9612358Y9606438D01*
X9334826Y9721395D01*
X9040199Y9780000D01*
X8739801Y9780000D01*
X8445174Y9721395D01*
X8167642Y9606438D01*
X7917869Y9439545D01*
X7705455Y9227131D01*
X7538562Y8977358D01*
X7423605Y8699826D01*
X7365000Y8405199D01*
X475000Y8405199D01*
X475000Y15390199D01*
X11175000Y15390199D01*
X11175000Y15089801D01*
X11233605Y14795174D01*
X11348562Y14517642D01*
X11515455Y14267869D01*
X11727869Y14055455D01*
X11977642Y13888562D01*
X12255174Y13773605D01*
X12549801Y13715000D01*
X12850199Y13715000D01*
X13144826Y13773605D01*
X13422358Y13888562D01*
X13672131Y14055455D01*
X13884545Y14267869D01*
X14051438Y14517642D01*
X14166395Y14795174D01*
X14207336Y15000997D01*
X14268952Y15007066D01*
X14556416Y15094267D01*
X14821344Y15235874D01*
X15053555Y15426445D01*
X15244126Y15658656D01*
X15385733Y15923584D01*
X15472934Y16211048D01*
X15495000Y16435089D01*
X15495000Y19124911D01*
X15472934Y19348952D01*
X15385733Y19636416D01*
X15244126Y19901344D01*
X15053555Y20133555D01*
X14821343Y20324126D01*
X14556415Y20465733D01*
X14268951Y20552934D01*
X13970000Y20582378D01*
X13671048Y20552934D01*
X13383584Y20465733D01*
X13118656Y20324126D01*
X12886445Y20133555D01*
X12695874Y19901343D01*
X12554267Y19636415D01*
X12467066Y19348951D01*
X12445000Y19124910D01*
X12445001Y16744154D01*
X12255174Y16706395D01*
X11977642Y16591438D01*
X11727869Y16424545D01*
X11515455Y16212131D01*
X11348562Y15962358D01*
X11233605Y15684826D01*
X11175000Y15390199D01*
X475000Y15390199D01*
X475000Y68105000D01*
X65565000Y68105000D01*
X65565001Y475000D01*
G37*
X65565001Y475000D02*
X475000Y475000D01*
X475000Y8405199D01*
X7365000Y8405199D01*
X7365000Y8104801D01*
X7423605Y7810174D01*
X7538562Y7532642D01*
X7705455Y7282869D01*
X7917869Y7070455D01*
X8167642Y6903562D01*
X8445174Y6788605D01*
X8739801Y6730000D01*
X9040199Y6730000D01*
X9334826Y6788605D01*
X9612358Y6903562D01*
X9862131Y7070455D01*
X9871676Y7080000D01*
X11273027Y7080000D01*
X11348562Y6897642D01*
X11515455Y6647869D01*
X11727869Y6435455D01*
X11977642Y6268562D01*
X12255174Y6153605D01*
X12549801Y6095000D01*
X12850199Y6095000D01*
X13144826Y6153605D01*
X13422358Y6268562D01*
X13672131Y6435455D01*
X13884545Y6647869D01*
X14051438Y6897642D01*
X14166395Y7175174D01*
X14225000Y7469801D01*
X14225000Y7770199D01*
X14166395Y8064826D01*
X14051438Y8342358D01*
X13884545Y8592131D01*
X13672131Y8804545D01*
X13422358Y8971438D01*
X13144826Y9086395D01*
X12850199Y9145000D01*
X12832694Y9145000D01*
X12720953Y9236704D01*
X12516829Y9345811D01*
X12295340Y9412998D01*
X12122720Y9430000D01*
X12122712Y9430000D01*
X12065000Y9435684D01*
X12007288Y9430000D01*
X9871676Y9430000D01*
X9862131Y9439545D01*
X9612358Y9606438D01*
X9334826Y9721395D01*
X9040199Y9780000D01*
X8739801Y9780000D01*
X8445174Y9721395D01*
X8167642Y9606438D01*
X7917869Y9439545D01*
X7705455Y9227131D01*
X7538562Y8977358D01*
X7423605Y8699826D01*
X7365000Y8405199D01*
X475000Y8405199D01*
X475000Y15390199D01*
X11175000Y15390199D01*
X11175000Y15089801D01*
X11233605Y14795174D01*
X11348562Y14517642D01*
X11515455Y14267869D01*
X11727869Y14055455D01*
X11977642Y13888562D01*
X12255174Y13773605D01*
X12549801Y13715000D01*
X12850199Y13715000D01*
X13144826Y13773605D01*
X13422358Y13888562D01*
X13672131Y14055455D01*
X13884545Y14267869D01*
X14051438Y14517642D01*
X14166395Y14795174D01*
X14207336Y15000997D01*
X14268952Y15007066D01*
X14556416Y15094267D01*
X14821344Y15235874D01*
X15053555Y15426445D01*
X15244126Y15658656D01*
X15385733Y15923584D01*
X15472934Y16211048D01*
X15495000Y16435089D01*
X15495000Y19124911D01*
X15472934Y19348952D01*
X15385733Y19636416D01*
X15244126Y19901344D01*
X15053555Y20133555D01*
X14821343Y20324126D01*
X14556415Y20465733D01*
X14268951Y20552934D01*
X13970000Y20582378D01*
X13671048Y20552934D01*
X13383584Y20465733D01*
X13118656Y20324126D01*
X12886445Y20133555D01*
X12695874Y19901343D01*
X12554267Y19636415D01*
X12467066Y19348951D01*
X12445000Y19124910D01*
X12445001Y16744154D01*
X12255174Y16706395D01*
X11977642Y16591438D01*
X11727869Y16424545D01*
X11515455Y16212131D01*
X11348562Y15962358D01*
X11233605Y15684826D01*
X11175000Y15390199D01*
X475000Y15390199D01*
X475000Y68105000D01*
X65565000Y68105000D01*
X65565001Y475000D01*
%TD*%
M02*
