%TF.GenerationSoftware,KiCad,Pcbnew,(5.1.6)-1*%
%TF.CreationDate,2025-08-30T03:37:39-05:00*%
%TF.ProjectId,max3232_board,6d617833-3233-4325-9f62-6f6172642e6b,rev?*%
%TF.SameCoordinates,PX1bdb590PY3072580*%
%TF.FileFunction,Copper,L2,Bot*%
%TF.FilePolarity,Positive*%
%FSLAX46Y46*%
G04 Gerber Fmt 4.6, Leading zero omitted, Abs format (unit mm)*
G04 Created by KiCad (PCBNEW (5.1.6)-1) date 2025-08-30 03:37:39*
%MOMM*%
%LPD*%
G01*
G04 APERTURE LIST*
%TA.AperFunction,ComponentPad*%
%ADD10C,2.200000*%
%TD*%
%TA.AperFunction,ViaPad*%
%ADD11C,2.000000*%
%TD*%
%TA.AperFunction,Conductor*%
%ADD12C,0.900000*%
%TD*%
%TA.AperFunction,Conductor*%
%ADD13C,1.000000*%
%TD*%
%TA.AperFunction,Conductor*%
%ADD14C,0.300000*%
%TD*%
G04 APERTURE END LIST*
%TO.P,C1,1*%
%TO.N,GND*%
%TA.AperFunction,SMDPad,CuDef*%
G36*
G01*
X27358500Y18120000D02*
X26108500Y18120000D01*
G75*
G02*
X25858500Y18370000I0J250000D01*
G01*
X25858500Y19295000D01*
G75*
G02*
X26108500Y19545000I250000J0D01*
G01*
X27358500Y19545000D01*
G75*
G02*
X27608500Y19295000I0J-250000D01*
G01*
X27608500Y18370000D01*
G75*
G02*
X27358500Y18120000I-250000J0D01*
G01*
G37*
%TD.AperFunction*%
%TO.P,C1,2*%
%TO.N,Net-(C1-Pad2)*%
%TA.AperFunction,SMDPad,CuDef*%
G36*
G01*
X27358500Y21095000D02*
X26108500Y21095000D01*
G75*
G02*
X25858500Y21345000I0J250000D01*
G01*
X25858500Y22270000D01*
G75*
G02*
X26108500Y22520000I250000J0D01*
G01*
X27358500Y22520000D01*
G75*
G02*
X27608500Y22270000I0J-250000D01*
G01*
X27608500Y21345000D01*
G75*
G02*
X27358500Y21095000I-250000J0D01*
G01*
G37*
%TD.AperFunction*%
%TD*%
%TO.P,C2,2*%
%TO.N,GND*%
%TA.AperFunction,SMDPad,CuDef*%
G36*
G01*
X26175000Y12075000D02*
X26175000Y13325000D01*
G75*
G02*
X26425000Y13575000I250000J0D01*
G01*
X27350000Y13575000D01*
G75*
G02*
X27600000Y13325000I0J-250000D01*
G01*
X27600000Y12075000D01*
G75*
G02*
X27350000Y11825000I-250000J0D01*
G01*
X26425000Y11825000D01*
G75*
G02*
X26175000Y12075000I0J250000D01*
G01*
G37*
%TD.AperFunction*%
%TO.P,C2,1*%
%TO.N,Net-(C2-Pad1)*%
%TA.AperFunction,SMDPad,CuDef*%
G36*
G01*
X23200000Y12075000D02*
X23200000Y13325000D01*
G75*
G02*
X23450000Y13575000I250000J0D01*
G01*
X24375000Y13575000D01*
G75*
G02*
X24625000Y13325000I0J-250000D01*
G01*
X24625000Y12075000D01*
G75*
G02*
X24375000Y11825000I-250000J0D01*
G01*
X23450000Y11825000D01*
G75*
G02*
X23200000Y12075000I0J250000D01*
G01*
G37*
%TD.AperFunction*%
%TD*%
%TO.P,C3,1*%
%TO.N,Net-(C3-Pad1)*%
%TA.AperFunction,SMDPad,CuDef*%
G36*
G01*
X24691500Y18120000D02*
X23441500Y18120000D01*
G75*
G02*
X23191500Y18370000I0J250000D01*
G01*
X23191500Y19295000D01*
G75*
G02*
X23441500Y19545000I250000J0D01*
G01*
X24691500Y19545000D01*
G75*
G02*
X24941500Y19295000I0J-250000D01*
G01*
X24941500Y18370000D01*
G75*
G02*
X24691500Y18120000I-250000J0D01*
G01*
G37*
%TD.AperFunction*%
%TO.P,C3,2*%
%TO.N,Net-(C3-Pad2)*%
%TA.AperFunction,SMDPad,CuDef*%
G36*
G01*
X24691500Y21095000D02*
X23441500Y21095000D01*
G75*
G02*
X23191500Y21345000I0J250000D01*
G01*
X23191500Y22270000D01*
G75*
G02*
X23441500Y22520000I250000J0D01*
G01*
X24691500Y22520000D01*
G75*
G02*
X24941500Y22270000I0J-250000D01*
G01*
X24941500Y21345000D01*
G75*
G02*
X24691500Y21095000I-250000J0D01*
G01*
G37*
%TD.AperFunction*%
%TD*%
%TO.P,C4,1*%
%TO.N,Net-(C4-Pad1)*%
%TA.AperFunction,SMDPad,CuDef*%
G36*
G01*
X27600000Y17135000D02*
X27600000Y15885000D01*
G75*
G02*
X27350000Y15635000I-250000J0D01*
G01*
X26425000Y15635000D01*
G75*
G02*
X26175000Y15885000I0J250000D01*
G01*
X26175000Y17135000D01*
G75*
G02*
X26425000Y17385000I250000J0D01*
G01*
X27350000Y17385000D01*
G75*
G02*
X27600000Y17135000I0J-250000D01*
G01*
G37*
%TD.AperFunction*%
%TO.P,C4,2*%
%TO.N,Net-(C4-Pad2)*%
%TA.AperFunction,SMDPad,CuDef*%
G36*
G01*
X24625000Y17135000D02*
X24625000Y15885000D01*
G75*
G02*
X24375000Y15635000I-250000J0D01*
G01*
X23450000Y15635000D01*
G75*
G02*
X23200000Y15885000I0J250000D01*
G01*
X23200000Y17135000D01*
G75*
G02*
X23450000Y17385000I250000J0D01*
G01*
X24375000Y17385000D01*
G75*
G02*
X24625000Y17135000I0J-250000D01*
G01*
G37*
%TD.AperFunction*%
%TD*%
%TO.P,C5,2*%
%TO.N,+3V3*%
%TA.AperFunction,SMDPad,CuDef*%
G36*
G01*
X10277000Y20714000D02*
X9027000Y20714000D01*
G75*
G02*
X8777000Y20964000I0J250000D01*
G01*
X8777000Y21889000D01*
G75*
G02*
X9027000Y22139000I250000J0D01*
G01*
X10277000Y22139000D01*
G75*
G02*
X10527000Y21889000I0J-250000D01*
G01*
X10527000Y20964000D01*
G75*
G02*
X10277000Y20714000I-250000J0D01*
G01*
G37*
%TD.AperFunction*%
%TO.P,C5,1*%
%TO.N,GND*%
%TA.AperFunction,SMDPad,CuDef*%
G36*
G01*
X10277000Y17739000D02*
X9027000Y17739000D01*
G75*
G02*
X8777000Y17989000I0J250000D01*
G01*
X8777000Y18914000D01*
G75*
G02*
X9027000Y19164000I250000J0D01*
G01*
X10277000Y19164000D01*
G75*
G02*
X10527000Y18914000I0J-250000D01*
G01*
X10527000Y17989000D01*
G75*
G02*
X10277000Y17739000I-250000J0D01*
G01*
G37*
%TD.AperFunction*%
%TD*%
D10*
%TO.P,J1,1*%
%TO.N,DOUT2*%
X4191000Y9080500D03*
%TO.P,J1,2*%
%TO.N,DIN2*%
X4191000Y11620500D03*
%TO.P,J1,3*%
%TO.N,DIN1*%
X4191000Y14160500D03*
%TO.P,J1,4*%
%TO.N,DOUT1*%
X4191000Y16700500D03*
%TO.P,J1,5*%
%TO.N,GND*%
X4191000Y19240500D03*
%TO.P,J1,6*%
%TO.N,+3V3*%
X4191000Y21780500D03*
%TD*%
%TO.P,J2,2*%
%TO.N,GND*%
X32448500Y20193000D03*
%TO.P,J2,1*%
%TO.N,VHF_AIS-*%
X32448500Y17653000D03*
%TD*%
%TO.P,J3,1*%
%TO.N,RIN1*%
X32448500Y8826500D03*
%TO.P,J3,2*%
%TO.N,ROUT2*%
X32448500Y11366500D03*
%TD*%
%TO.P,J4,2*%
%TO.N,E80-*%
X34988500Y20193000D03*
%TO.P,J4,1*%
X34988500Y17653000D03*
%TD*%
%TO.P,J5,1*%
%TO.N,E80_IN*%
X34988500Y8826500D03*
%TO.P,J5,2*%
X34988500Y11366500D03*
%TD*%
%TO.P,J6,2*%
%TO.N,ROUT1*%
X15303500Y24130000D03*
%TO.P,J6,1*%
%TO.N,GND*%
X12763500Y24130000D03*
%TD*%
%TO.P,J7,1*%
%TO.N,RIN1*%
X17843500Y24130000D03*
%TO.P,J7,2*%
%TO.N,VHF_AIS-*%
X20383500Y24130000D03*
%TD*%
%TO.P,J8,1*%
%TO.N,E80_IN*%
X24765000Y3810000D03*
%TO.P,J8,2*%
%TO.N,E80-*%
X22225000Y3810000D03*
%TO.P,J8,3*%
%TO.N,E80_OUT*%
X19685000Y3810000D03*
%TD*%
%TO.P,U1,1*%
%TO.N,Net-(C3-Pad2)*%
%TA.AperFunction,SMDPad,CuDef*%
G36*
G01*
X20760000Y19910000D02*
X20760000Y19460000D01*
G75*
G02*
X20535000Y19235000I-225000J0D01*
G01*
X18985000Y19235000D01*
G75*
G02*
X18760000Y19460000I0J225000D01*
G01*
X18760000Y19910000D01*
G75*
G02*
X18985000Y20135000I225000J0D01*
G01*
X20535000Y20135000D01*
G75*
G02*
X20760000Y19910000I0J-225000D01*
G01*
G37*
%TD.AperFunction*%
%TO.P,U1,2*%
%TO.N,Net-(C1-Pad2)*%
%TA.AperFunction,SMDPad,CuDef*%
G36*
G01*
X20760000Y18640000D02*
X20760000Y18190000D01*
G75*
G02*
X20535000Y17965000I-225000J0D01*
G01*
X18985000Y17965000D01*
G75*
G02*
X18760000Y18190000I0J225000D01*
G01*
X18760000Y18640000D01*
G75*
G02*
X18985000Y18865000I225000J0D01*
G01*
X20535000Y18865000D01*
G75*
G02*
X20760000Y18640000I0J-225000D01*
G01*
G37*
%TD.AperFunction*%
%TO.P,U1,3*%
%TO.N,Net-(C3-Pad1)*%
%TA.AperFunction,SMDPad,CuDef*%
G36*
G01*
X20760000Y17370000D02*
X20760000Y16920000D01*
G75*
G02*
X20535000Y16695000I-225000J0D01*
G01*
X18985000Y16695000D01*
G75*
G02*
X18760000Y16920000I0J225000D01*
G01*
X18760000Y17370000D01*
G75*
G02*
X18985000Y17595000I225000J0D01*
G01*
X20535000Y17595000D01*
G75*
G02*
X20760000Y17370000I0J-225000D01*
G01*
G37*
%TD.AperFunction*%
%TO.P,U1,4*%
%TO.N,Net-(C4-Pad2)*%
%TA.AperFunction,SMDPad,CuDef*%
G36*
G01*
X20760000Y16100000D02*
X20760000Y15650000D01*
G75*
G02*
X20535000Y15425000I-225000J0D01*
G01*
X18985000Y15425000D01*
G75*
G02*
X18760000Y15650000I0J225000D01*
G01*
X18760000Y16100000D01*
G75*
G02*
X18985000Y16325000I225000J0D01*
G01*
X20535000Y16325000D01*
G75*
G02*
X20760000Y16100000I0J-225000D01*
G01*
G37*
%TD.AperFunction*%
%TO.P,U1,5*%
%TO.N,Net-(C4-Pad1)*%
%TA.AperFunction,SMDPad,CuDef*%
G36*
G01*
X20760000Y14830000D02*
X20760000Y14380000D01*
G75*
G02*
X20535000Y14155000I-225000J0D01*
G01*
X18985000Y14155000D01*
G75*
G02*
X18760000Y14380000I0J225000D01*
G01*
X18760000Y14830000D01*
G75*
G02*
X18985000Y15055000I225000J0D01*
G01*
X20535000Y15055000D01*
G75*
G02*
X20760000Y14830000I0J-225000D01*
G01*
G37*
%TD.AperFunction*%
%TO.P,U1,6*%
%TO.N,Net-(C2-Pad1)*%
%TA.AperFunction,SMDPad,CuDef*%
G36*
G01*
X20760000Y13560000D02*
X20760000Y13110000D01*
G75*
G02*
X20535000Y12885000I-225000J0D01*
G01*
X18985000Y12885000D01*
G75*
G02*
X18760000Y13110000I0J225000D01*
G01*
X18760000Y13560000D01*
G75*
G02*
X18985000Y13785000I225000J0D01*
G01*
X20535000Y13785000D01*
G75*
G02*
X20760000Y13560000I0J-225000D01*
G01*
G37*
%TD.AperFunction*%
%TO.P,U1,7*%
%TO.N,ROUT2*%
%TA.AperFunction,SMDPad,CuDef*%
G36*
G01*
X20760000Y12290000D02*
X20760000Y11840000D01*
G75*
G02*
X20535000Y11615000I-225000J0D01*
G01*
X18985000Y11615000D01*
G75*
G02*
X18760000Y11840000I0J225000D01*
G01*
X18760000Y12290000D01*
G75*
G02*
X18985000Y12515000I225000J0D01*
G01*
X20535000Y12515000D01*
G75*
G02*
X20760000Y12290000I0J-225000D01*
G01*
G37*
%TD.AperFunction*%
%TO.P,U1,8*%
%TO.N,E80_OUT*%
%TA.AperFunction,SMDPad,CuDef*%
G36*
G01*
X20760000Y11020000D02*
X20760000Y10570000D01*
G75*
G02*
X20535000Y10345000I-225000J0D01*
G01*
X18985000Y10345000D01*
G75*
G02*
X18760000Y10570000I0J225000D01*
G01*
X18760000Y11020000D01*
G75*
G02*
X18985000Y11245000I225000J0D01*
G01*
X20535000Y11245000D01*
G75*
G02*
X20760000Y11020000I0J-225000D01*
G01*
G37*
%TD.AperFunction*%
%TO.P,U1,9*%
%TO.N,DOUT2*%
%TA.AperFunction,SMDPad,CuDef*%
G36*
G01*
X14260000Y11020000D02*
X14260000Y10570000D01*
G75*
G02*
X14035000Y10345000I-225000J0D01*
G01*
X12485000Y10345000D01*
G75*
G02*
X12260000Y10570000I0J225000D01*
G01*
X12260000Y11020000D01*
G75*
G02*
X12485000Y11245000I225000J0D01*
G01*
X14035000Y11245000D01*
G75*
G02*
X14260000Y11020000I0J-225000D01*
G01*
G37*
%TD.AperFunction*%
%TO.P,U1,10*%
%TO.N,DIN2*%
%TA.AperFunction,SMDPad,CuDef*%
G36*
G01*
X14260000Y12290000D02*
X14260000Y11840000D01*
G75*
G02*
X14035000Y11615000I-225000J0D01*
G01*
X12485000Y11615000D01*
G75*
G02*
X12260000Y11840000I0J225000D01*
G01*
X12260000Y12290000D01*
G75*
G02*
X12485000Y12515000I225000J0D01*
G01*
X14035000Y12515000D01*
G75*
G02*
X14260000Y12290000I0J-225000D01*
G01*
G37*
%TD.AperFunction*%
%TO.P,U1,11*%
%TO.N,DIN1*%
%TA.AperFunction,SMDPad,CuDef*%
G36*
G01*
X14260000Y13560000D02*
X14260000Y13110000D01*
G75*
G02*
X14035000Y12885000I-225000J0D01*
G01*
X12485000Y12885000D01*
G75*
G02*
X12260000Y13110000I0J225000D01*
G01*
X12260000Y13560000D01*
G75*
G02*
X12485000Y13785000I225000J0D01*
G01*
X14035000Y13785000D01*
G75*
G02*
X14260000Y13560000I0J-225000D01*
G01*
G37*
%TD.AperFunction*%
%TO.P,U1,12*%
%TO.N,DOUT1*%
%TA.AperFunction,SMDPad,CuDef*%
G36*
G01*
X14260000Y14830000D02*
X14260000Y14380000D01*
G75*
G02*
X14035000Y14155000I-225000J0D01*
G01*
X12485000Y14155000D01*
G75*
G02*
X12260000Y14380000I0J225000D01*
G01*
X12260000Y14830000D01*
G75*
G02*
X12485000Y15055000I225000J0D01*
G01*
X14035000Y15055000D01*
G75*
G02*
X14260000Y14830000I0J-225000D01*
G01*
G37*
%TD.AperFunction*%
%TO.P,U1,13*%
%TO.N,RIN1*%
%TA.AperFunction,SMDPad,CuDef*%
G36*
G01*
X14260000Y16100000D02*
X14260000Y15650000D01*
G75*
G02*
X14035000Y15425000I-225000J0D01*
G01*
X12485000Y15425000D01*
G75*
G02*
X12260000Y15650000I0J225000D01*
G01*
X12260000Y16100000D01*
G75*
G02*
X12485000Y16325000I225000J0D01*
G01*
X14035000Y16325000D01*
G75*
G02*
X14260000Y16100000I0J-225000D01*
G01*
G37*
%TD.AperFunction*%
%TO.P,U1,14*%
%TO.N,ROUT1*%
%TA.AperFunction,SMDPad,CuDef*%
G36*
G01*
X14260000Y17370000D02*
X14260000Y16920000D01*
G75*
G02*
X14035000Y16695000I-225000J0D01*
G01*
X12485000Y16695000D01*
G75*
G02*
X12260000Y16920000I0J225000D01*
G01*
X12260000Y17370000D01*
G75*
G02*
X12485000Y17595000I225000J0D01*
G01*
X14035000Y17595000D01*
G75*
G02*
X14260000Y17370000I0J-225000D01*
G01*
G37*
%TD.AperFunction*%
%TO.P,U1,15*%
%TO.N,GND*%
%TA.AperFunction,SMDPad,CuDef*%
G36*
G01*
X14260000Y18640000D02*
X14260000Y18190000D01*
G75*
G02*
X14035000Y17965000I-225000J0D01*
G01*
X12485000Y17965000D01*
G75*
G02*
X12260000Y18190000I0J225000D01*
G01*
X12260000Y18640000D01*
G75*
G02*
X12485000Y18865000I225000J0D01*
G01*
X14035000Y18865000D01*
G75*
G02*
X14260000Y18640000I0J-225000D01*
G01*
G37*
%TD.AperFunction*%
%TO.P,U1,16*%
%TO.N,+3V3*%
%TA.AperFunction,SMDPad,CuDef*%
G36*
G01*
X14260000Y19910000D02*
X14260000Y19460000D01*
G75*
G02*
X14035000Y19235000I-225000J0D01*
G01*
X12485000Y19235000D01*
G75*
G02*
X12260000Y19460000I0J225000D01*
G01*
X12260000Y19910000D01*
G75*
G02*
X12485000Y20135000I225000J0D01*
G01*
X14035000Y20135000D01*
G75*
G02*
X14260000Y19910000I0J-225000D01*
G01*
G37*
%TD.AperFunction*%
%TD*%
D11*
%TO.N,VHF_AIS-*%
X29464000Y17780000D03*
X29464000Y24130000D03*
%TO.N,RIN1*%
X22796500Y8001000D03*
X17145000Y8001000D03*
%TO.N,E80-*%
X29400500Y7620000D03*
X29464000Y15240000D03*
%TD*%
D12*
%TO.N,Net-(C1-Pad2)*%
X23122980Y20320000D02*
X21209000Y18406020D01*
X21209000Y18415000D02*
X20510500Y18415000D01*
X25971500Y20320000D02*
X23122980Y20320000D01*
X26860500Y21209000D02*
X25971500Y20320000D01*
%TO.N,Net-(C2-Pad1)*%
X20828000Y13335000D02*
X20447000Y13335000D01*
X20828000Y13335000D02*
X23304500Y13335000D01*
X23304500Y13335000D02*
X23558500Y13081000D01*
%TO.N,Net-(C3-Pad1)*%
X21844000Y17145000D02*
X20447000Y17145000D01*
X23531500Y18832500D02*
X21844000Y17145000D01*
D13*
X24066500Y18832500D02*
X23531500Y18832500D01*
D12*
%TO.N,Net-(C3-Pad2)*%
X23659091Y21590001D02*
X22606000Y21590000D01*
D13*
X24066500Y21807500D02*
X23966500Y21807500D01*
D12*
X22625919Y21520009D02*
X20790910Y19685000D01*
D13*
X20790910Y19685000D02*
X20256500Y19685000D01*
D12*
%TO.N,Net-(C4-Pad1)*%
X21272500Y14605000D02*
X20510500Y14605000D01*
X26733500Y16256000D02*
X25082500Y14605000D01*
X25082500Y14605000D02*
X21272500Y14605000D01*
%TO.N,Net-(C4-Pad2)*%
X22288500Y15875000D02*
X23114000Y15875000D01*
X23114000Y15875000D02*
X23876000Y16637000D01*
X22288500Y15875000D02*
X20510500Y15875000D01*
D13*
%TO.N,+3V3*%
X9652000Y21426500D02*
X4227500Y21426500D01*
X9652000Y21426500D02*
X12609500Y21426500D01*
X12609500Y21426500D02*
X13208000Y20828000D01*
X13208000Y20828000D02*
X13208000Y19939000D01*
D12*
%TO.N,DOUT1*%
X4505502Y16510000D02*
X6410502Y14605000D01*
X6604000Y14605000D02*
X12636500Y14605000D01*
X6410502Y14605000D02*
X9144000Y14605000D01*
D13*
X4127500Y16510000D02*
X4505502Y16510000D01*
D12*
%TO.N,DIN1*%
X7821440Y13328510D02*
X12700000Y13328510D01*
X9010510Y13328510D02*
X5848490Y13328510D01*
X5848490Y13335000D02*
X4508500Y14674990D01*
%TO.N,DIN2*%
X8890000Y12065000D02*
X12700000Y12065000D01*
X8318500Y12065000D02*
X8890000Y12065000D01*
D13*
X4635500Y12065000D02*
X4064000Y11493500D01*
D12*
X8318500Y12065000D02*
X4445000Y12065000D01*
%TO.N,DOUT2*%
X5969000Y10795000D02*
X4318000Y9144000D01*
X12509500Y10795000D02*
X5969000Y10795000D01*
D13*
%TO.N,VHF_AIS-*%
X32448500Y17716500D02*
X29527500Y17716500D01*
X20510500Y24130000D02*
X20447000Y24193500D01*
X29464000Y24130000D02*
X20574000Y24130000D01*
%TO.N,RIN1*%
X22796500Y8001000D02*
X22796500Y8001000D01*
X17843500Y24130000D02*
X17843500Y23939500D01*
X17843500Y23939500D02*
X17145000Y23241000D01*
X17075010Y15944990D02*
X17145000Y15875000D01*
X17145000Y15875000D02*
X17145000Y8001000D01*
D12*
X13271500Y15875000D02*
X17068520Y15875000D01*
D13*
X17145000Y8001000D02*
X17145000Y8001000D01*
X23691990Y8896490D02*
X22796500Y8001000D01*
X17145000Y15875000D02*
X17145000Y23241000D01*
X32258000Y8826500D02*
X32448500Y8826500D01*
X31426010Y9658490D02*
X32258000Y8826500D01*
X24447500Y9658490D02*
X31426010Y9658490D01*
X22796500Y8001000D02*
X24447500Y9652000D01*
X24447500Y9652000D02*
X24447500Y9658490D01*
%TO.N,ROUT2*%
X23939500Y10858500D02*
X22987000Y10858500D01*
D12*
X22987000Y10858500D02*
X21780500Y12065000D01*
X21780500Y12065000D02*
X20637500Y12065000D01*
D13*
X23939500Y10858500D02*
X32004000Y10858500D01*
X32004000Y10858500D02*
X32512000Y11366500D01*
%TO.N,E80-*%
X29464000Y15240000D02*
X33528000Y15240000D01*
X22225000Y3175000D02*
X22225000Y3683000D01*
X28892500Y7112000D02*
X29400500Y7620000D01*
X22225000Y3810000D02*
X22225000Y4445000D01*
X22929991Y4942061D02*
X25099929Y7111999D01*
X22225000Y4237070D02*
X25099929Y7111999D01*
X22225000Y3810000D02*
X22225000Y4237070D01*
X28892499Y7111999D02*
X29400500Y7620000D01*
X25099929Y7111999D02*
X28892499Y7111999D01*
X34988500Y16700500D02*
X33528000Y15240000D01*
X34988500Y20193000D02*
X34988500Y16700500D01*
%TO.N,E80_IN*%
X35052000Y10033000D02*
X35052000Y11303000D01*
X35052000Y7937500D02*
X35052000Y10033000D01*
X24130000Y4445000D02*
X24130000Y3810000D01*
X33470990Y5911990D02*
X25596990Y5911990D01*
X25596990Y5911990D02*
X24130000Y4445000D01*
X35052000Y10033000D02*
X35052000Y7493000D01*
X35052000Y7493000D02*
X33470990Y5911990D01*
%TO.N,ROUT1*%
X15303500Y24066500D02*
X15944991Y23425009D01*
X15303500Y24130000D02*
X15303500Y24066500D01*
D12*
X15944991Y17145000D02*
X13779500Y17145000D01*
D13*
X15938500Y17272000D02*
X15938500Y23552009D01*
%TO.N,E80_OUT*%
X19685000Y3175000D02*
X19685000Y10668000D01*
D12*
%TO.N,GND*%
X13260000Y18415000D02*
X9906000Y18415000D01*
D13*
X9906000Y18415000D02*
X5461000Y18415000D01*
X5461000Y18415000D02*
X4572000Y19304000D01*
X27014500Y12827000D02*
X30480000Y12827000D01*
X26733500Y18832500D02*
X27087500Y18832500D01*
X27087500Y18832500D02*
X28575000Y20320000D01*
X28575000Y20320000D02*
X30607000Y20320000D01*
X12827000Y23812500D02*
X7683500Y23812500D01*
%TD*%
D14*
%TO.N,GND*%
G36*
X38870001Y500000D02*
G01*
X500000Y500000D01*
X500000Y2682813D01*
X1090000Y2682813D01*
X1090000Y2397187D01*
X1145723Y2117051D01*
X1255027Y1853167D01*
X1413711Y1615679D01*
X1615679Y1413711D01*
X1853167Y1255027D01*
X2117051Y1145723D01*
X2397187Y1090000D01*
X2682813Y1090000D01*
X2962949Y1145723D01*
X3226833Y1255027D01*
X3464321Y1413711D01*
X3666289Y1615679D01*
X3824973Y1853167D01*
X3934277Y2117051D01*
X3990000Y2397187D01*
X3990000Y2682813D01*
X3934277Y2962949D01*
X3824973Y3226833D01*
X3666289Y3464321D01*
X3464321Y3666289D01*
X3226833Y3824973D01*
X2962949Y3934277D01*
X2682813Y3990000D01*
X2397187Y3990000D01*
X2117051Y3934277D01*
X1853167Y3824973D01*
X1615679Y3666289D01*
X1413711Y3464321D01*
X1255027Y3226833D01*
X1145723Y2962949D01*
X1090000Y2682813D01*
X500000Y2682813D01*
X500000Y21933162D01*
X2641000Y21933162D01*
X2641000Y21627838D01*
X2700565Y21328382D01*
X2817408Y21046300D01*
X2987036Y20792432D01*
X3202932Y20576536D01*
X3456800Y20406908D01*
X3738882Y20290065D01*
X4038338Y20230500D01*
X4343662Y20230500D01*
X4643118Y20290065D01*
X4925200Y20406908D01*
X5029353Y20476500D01*
X7858982Y20476500D01*
X7848472Y15505000D01*
X6783294Y15505000D01*
X5740910Y16547384D01*
X5741000Y16547838D01*
X5741000Y16853162D01*
X5681435Y17152618D01*
X5564592Y17434700D01*
X5394964Y17688568D01*
X5179068Y17904464D01*
X4925200Y18074092D01*
X4643118Y18190935D01*
X4343662Y18250500D01*
X4038338Y18250500D01*
X3738882Y18190935D01*
X3456800Y18074092D01*
X3202932Y17904464D01*
X2987036Y17688568D01*
X2817408Y17434700D01*
X2700565Y17152618D01*
X2641000Y16853162D01*
X2641000Y16547838D01*
X2700565Y16248382D01*
X2817408Y15966300D01*
X2987036Y15712432D01*
X3202932Y15496536D01*
X3301763Y15430500D01*
X3202932Y15364464D01*
X2987036Y15148568D01*
X2817408Y14894700D01*
X2700565Y14612618D01*
X2641000Y14313162D01*
X2641000Y14007838D01*
X2700565Y13708382D01*
X2817408Y13426300D01*
X2987036Y13172432D01*
X3202932Y12956536D01*
X3301763Y12890500D01*
X3202932Y12824464D01*
X2987036Y12608568D01*
X2817408Y12354700D01*
X2700565Y12072618D01*
X2641000Y11773162D01*
X2641000Y11467838D01*
X2700565Y11168382D01*
X2817408Y10886300D01*
X2987036Y10632432D01*
X3202932Y10416536D01*
X3301763Y10350500D01*
X3202932Y10284464D01*
X2987036Y10068568D01*
X2817408Y9814700D01*
X2700565Y9532618D01*
X2641000Y9233162D01*
X2641000Y8927838D01*
X2700565Y8628382D01*
X2817408Y8346300D01*
X2987036Y8092432D01*
X3202932Y7876536D01*
X3456800Y7706908D01*
X3738882Y7590065D01*
X4038338Y7530500D01*
X4343662Y7530500D01*
X4643118Y7590065D01*
X4925200Y7706908D01*
X5179068Y7876536D01*
X5394964Y8092432D01*
X5564592Y8346300D01*
X5681435Y8628382D01*
X5741000Y8927838D01*
X5741000Y9233162D01*
X5730872Y9284080D01*
X6341792Y9895000D01*
X7836611Y9895000D01*
X7835125Y9191942D01*
X7837635Y9164301D01*
X7845799Y9136052D01*
X7859318Y9109939D01*
X7877672Y9086965D01*
X7900155Y9068013D01*
X7925903Y9053811D01*
X7953927Y9044905D01*
X7983150Y9041638D01*
X15598000Y8941365D01*
X15598000Y6635750D01*
X15600849Y6606652D01*
X15609353Y6578504D01*
X15623186Y6552555D01*
X15641814Y6529804D01*
X15664524Y6511124D01*
X18400961Y4678227D01*
X18311408Y4544200D01*
X18194565Y4262118D01*
X18135000Y3962662D01*
X18135000Y3657338D01*
X18194565Y3357882D01*
X18311408Y3075800D01*
X18481036Y2821932D01*
X18696932Y2606036D01*
X18950800Y2436408D01*
X19232882Y2319565D01*
X19292190Y2307768D01*
X19319692Y2293068D01*
X19498768Y2238746D01*
X19685000Y2220404D01*
X19871231Y2238746D01*
X20050307Y2293068D01*
X20077808Y2307768D01*
X20137118Y2319565D01*
X20419200Y2436408D01*
X20673068Y2606036D01*
X20888964Y2821932D01*
X20955000Y2920763D01*
X21021036Y2821932D01*
X21236932Y2606036D01*
X21490800Y2436408D01*
X21772882Y2319565D01*
X21832190Y2307768D01*
X21859692Y2293068D01*
X22038768Y2238746D01*
X22225000Y2220404D01*
X22411231Y2238746D01*
X22590307Y2293068D01*
X22617808Y2307768D01*
X22677118Y2319565D01*
X22959200Y2436408D01*
X23213068Y2606036D01*
X23428964Y2821932D01*
X23495000Y2920763D01*
X23561036Y2821932D01*
X23776932Y2606036D01*
X24030800Y2436408D01*
X24312882Y2319565D01*
X24612338Y2260000D01*
X24917662Y2260000D01*
X25217118Y2319565D01*
X25499200Y2436408D01*
X25753068Y2606036D01*
X25829845Y2682813D01*
X34364000Y2682813D01*
X34364000Y2397187D01*
X34419723Y2117051D01*
X34529027Y1853167D01*
X34687711Y1615679D01*
X34889679Y1413711D01*
X35127167Y1255027D01*
X35391051Y1145723D01*
X35671187Y1090000D01*
X35956813Y1090000D01*
X36236949Y1145723D01*
X36500833Y1255027D01*
X36738321Y1413711D01*
X36940289Y1615679D01*
X37098973Y1853167D01*
X37208277Y2117051D01*
X37264000Y2397187D01*
X37264000Y2682813D01*
X37208277Y2962949D01*
X37098973Y3226833D01*
X36940289Y3464321D01*
X36738321Y3666289D01*
X36500833Y3824973D01*
X36236949Y3934277D01*
X35956813Y3990000D01*
X35671187Y3990000D01*
X35391051Y3934277D01*
X35127167Y3824973D01*
X34889679Y3666289D01*
X34687711Y3464321D01*
X34529027Y3226833D01*
X34419723Y2962949D01*
X34364000Y2682813D01*
X25829845Y2682813D01*
X25968964Y2821932D01*
X26138592Y3075800D01*
X26255435Y3357882D01*
X26315000Y3657338D01*
X26315000Y3962662D01*
X26255435Y4262118D01*
X26138592Y4544200D01*
X25968964Y4798068D01*
X25897767Y4869265D01*
X25990493Y4961990D01*
X33424336Y4961990D01*
X33470990Y4957395D01*
X33517644Y4961990D01*
X33517655Y4961990D01*
X33657222Y4975736D01*
X33836298Y5030058D01*
X34001335Y5118272D01*
X34145991Y5236989D01*
X34175740Y5273238D01*
X35690757Y6788254D01*
X35727001Y6817999D01*
X35845718Y6962655D01*
X35925544Y7111999D01*
X35933932Y7127691D01*
X35988254Y7306767D01*
X35998141Y7407155D01*
X36002000Y7446335D01*
X36002000Y7446343D01*
X36006595Y7493000D01*
X36002000Y7539657D01*
X36002000Y7647968D01*
X36192464Y7838432D01*
X36362092Y8092300D01*
X36478935Y8374382D01*
X36538500Y8673838D01*
X36538500Y8979162D01*
X36478935Y9278618D01*
X36362092Y9560700D01*
X36192464Y9814568D01*
X36002000Y10005032D01*
X36002000Y10187968D01*
X36192464Y10378432D01*
X36362092Y10632300D01*
X36478935Y10914382D01*
X36538500Y11213838D01*
X36538500Y11519162D01*
X36478935Y11818618D01*
X36362092Y12100700D01*
X36192464Y12354568D01*
X35976568Y12570464D01*
X35722700Y12740092D01*
X35440618Y12856935D01*
X35141162Y12916500D01*
X34835838Y12916500D01*
X34536382Y12856935D01*
X34254300Y12740092D01*
X34000432Y12570464D01*
X33784536Y12354568D01*
X33718500Y12255737D01*
X33652464Y12354568D01*
X33436568Y12570464D01*
X33182700Y12740092D01*
X32900618Y12856935D01*
X32601162Y12916500D01*
X32295838Y12916500D01*
X31996382Y12856935D01*
X31714300Y12740092D01*
X31460432Y12570464D01*
X31244536Y12354568D01*
X31074908Y12100700D01*
X30958065Y11818618D01*
X30956052Y11808500D01*
X28635854Y11808500D01*
X28640585Y14046288D01*
X28777167Y13955027D01*
X29041051Y13845723D01*
X29321187Y13790000D01*
X29606813Y13790000D01*
X29886949Y13845723D01*
X30150833Y13955027D01*
X30388321Y14113711D01*
X30564610Y14290000D01*
X33481346Y14290000D01*
X33528000Y14285405D01*
X33574654Y14290000D01*
X33574665Y14290000D01*
X33714232Y14303746D01*
X33893308Y14358068D01*
X34058345Y14446282D01*
X34203001Y14564999D01*
X34232750Y14601248D01*
X35627257Y15995754D01*
X35663501Y16025499D01*
X35707876Y16079569D01*
X35782217Y16170154D01*
X35819715Y16240307D01*
X35870432Y16335192D01*
X35886764Y16389031D01*
X35976568Y16449036D01*
X36192464Y16664932D01*
X36362092Y16918800D01*
X36478935Y17200882D01*
X36538500Y17500338D01*
X36538500Y17805662D01*
X36478935Y18105118D01*
X36362092Y18387200D01*
X36192464Y18641068D01*
X35976568Y18856964D01*
X35938500Y18882400D01*
X35938500Y18963600D01*
X35976568Y18989036D01*
X36192464Y19204932D01*
X36362092Y19458800D01*
X36478935Y19740882D01*
X36538500Y20040338D01*
X36538500Y20345662D01*
X36478935Y20645118D01*
X36362092Y20927200D01*
X36192464Y21181068D01*
X35976568Y21396964D01*
X35722700Y21566592D01*
X35440618Y21683435D01*
X35141162Y21743000D01*
X34835838Y21743000D01*
X34536382Y21683435D01*
X34254300Y21566592D01*
X34000432Y21396964D01*
X33784536Y21181068D01*
X33614908Y20927200D01*
X33498065Y20645118D01*
X33438500Y20345662D01*
X33438500Y20040338D01*
X33498065Y19740882D01*
X33614908Y19458800D01*
X33784536Y19204932D01*
X34000432Y18989036D01*
X34038500Y18963600D01*
X34038500Y18882400D01*
X34000432Y18856964D01*
X33784536Y18641068D01*
X33718500Y18542237D01*
X33652464Y18641068D01*
X33436568Y18856964D01*
X33182700Y19026592D01*
X32900618Y19143435D01*
X32601162Y19203000D01*
X32295838Y19203000D01*
X31996382Y19143435D01*
X31714300Y19026592D01*
X31460432Y18856964D01*
X31269968Y18666500D01*
X30615560Y18666500D01*
X30590289Y18704321D01*
X30388321Y18906289D01*
X30150833Y19064973D01*
X29886949Y19174277D01*
X29606813Y19230000D01*
X29321187Y19230000D01*
X29041051Y19174277D01*
X28777167Y19064973D01*
X28651017Y18980682D01*
X28659353Y22923747D01*
X28777167Y22845027D01*
X29041051Y22735723D01*
X29321187Y22680000D01*
X29606813Y22680000D01*
X29886949Y22735723D01*
X30150833Y22845027D01*
X30388321Y23003711D01*
X30590289Y23205679D01*
X30748973Y23443167D01*
X30858277Y23707051D01*
X30914000Y23987187D01*
X30914000Y24272813D01*
X30858277Y24552949D01*
X30748973Y24816833D01*
X30590289Y25054321D01*
X30388321Y25256289D01*
X30150833Y25414973D01*
X29886949Y25524277D01*
X29606813Y25580000D01*
X29321187Y25580000D01*
X29041051Y25524277D01*
X28777167Y25414973D01*
X28539679Y25256289D01*
X28363390Y25080000D01*
X21612900Y25080000D01*
X21587464Y25118068D01*
X21371568Y25333964D01*
X21117700Y25503592D01*
X20835618Y25620435D01*
X20536162Y25680000D01*
X20230838Y25680000D01*
X19931382Y25620435D01*
X19649300Y25503592D01*
X19395432Y25333964D01*
X19179536Y25118068D01*
X19113500Y25019237D01*
X19047464Y25118068D01*
X18831568Y25333964D01*
X18577700Y25503592D01*
X18295618Y25620435D01*
X17996162Y25680000D01*
X17690838Y25680000D01*
X17391382Y25620435D01*
X17109300Y25503592D01*
X16855432Y25333964D01*
X16639536Y25118068D01*
X16573500Y25019237D01*
X16507464Y25118068D01*
X16291568Y25333964D01*
X16037700Y25503592D01*
X15755618Y25620435D01*
X15456162Y25680000D01*
X15150838Y25680000D01*
X14851382Y25620435D01*
X14569300Y25503592D01*
X14315432Y25333964D01*
X14099536Y25118068D01*
X13929908Y24864200D01*
X13813065Y24582118D01*
X13753735Y24283845D01*
X8018850Y24359362D01*
X7987923Y24356554D01*
X7959766Y24348078D01*
X7933803Y24334271D01*
X7911033Y24315665D01*
X7892331Y24292974D01*
X7878415Y24267070D01*
X7869819Y24238950D01*
X7866875Y24209692D01*
X7862999Y22376500D01*
X5621837Y22376500D01*
X5564592Y22514700D01*
X5394964Y22768568D01*
X5179068Y22984464D01*
X4925200Y23154092D01*
X4643118Y23270935D01*
X4343662Y23330500D01*
X4038338Y23330500D01*
X3738882Y23270935D01*
X3456800Y23154092D01*
X3202932Y22984464D01*
X2987036Y22768568D01*
X2817408Y22514700D01*
X2700565Y22232618D01*
X2641000Y21933162D01*
X500000Y21933162D01*
X500000Y26812813D01*
X1090000Y26812813D01*
X1090000Y26527187D01*
X1145723Y26247051D01*
X1255027Y25983167D01*
X1413711Y25745679D01*
X1615679Y25543711D01*
X1853167Y25385027D01*
X2117051Y25275723D01*
X2397187Y25220000D01*
X2682813Y25220000D01*
X2962949Y25275723D01*
X3226833Y25385027D01*
X3464321Y25543711D01*
X3666289Y25745679D01*
X3824973Y25983167D01*
X3934277Y26247051D01*
X3990000Y26527187D01*
X3990000Y26812813D01*
X34364000Y26812813D01*
X34364000Y26527187D01*
X34419723Y26247051D01*
X34529027Y25983167D01*
X34687711Y25745679D01*
X34889679Y25543711D01*
X35127167Y25385027D01*
X35391051Y25275723D01*
X35671187Y25220000D01*
X35956813Y25220000D01*
X36236949Y25275723D01*
X36500833Y25385027D01*
X36738321Y25543711D01*
X36940289Y25745679D01*
X37098973Y25983167D01*
X37208277Y26247051D01*
X37264000Y26527187D01*
X37264000Y26812813D01*
X37208277Y27092949D01*
X37098973Y27356833D01*
X36940289Y27594321D01*
X36738321Y27796289D01*
X36500833Y27954973D01*
X36236949Y28064277D01*
X35956813Y28120000D01*
X35671187Y28120000D01*
X35391051Y28064277D01*
X35127167Y27954973D01*
X34889679Y27796289D01*
X34687711Y27594321D01*
X34529027Y27356833D01*
X34419723Y27092949D01*
X34364000Y26812813D01*
X3990000Y26812813D01*
X3934277Y27092949D01*
X3824973Y27356833D01*
X3666289Y27594321D01*
X3464321Y27796289D01*
X3226833Y27954973D01*
X2962949Y28064277D01*
X2682813Y28120000D01*
X2397187Y28120000D01*
X2117051Y28064277D01*
X1853167Y27954973D01*
X1615679Y27796289D01*
X1413711Y27594321D01*
X1255027Y27356833D01*
X1145723Y27092949D01*
X1090000Y26812813D01*
X500000Y26812813D01*
X500000Y28710000D01*
X38870000Y28710000D01*
X38870001Y500000D01*
G37*
X38870001Y500000D02*
X500000Y500000D01*
X500000Y2682813D01*
X1090000Y2682813D01*
X1090000Y2397187D01*
X1145723Y2117051D01*
X1255027Y1853167D01*
X1413711Y1615679D01*
X1615679Y1413711D01*
X1853167Y1255027D01*
X2117051Y1145723D01*
X2397187Y1090000D01*
X2682813Y1090000D01*
X2962949Y1145723D01*
X3226833Y1255027D01*
X3464321Y1413711D01*
X3666289Y1615679D01*
X3824973Y1853167D01*
X3934277Y2117051D01*
X3990000Y2397187D01*
X3990000Y2682813D01*
X3934277Y2962949D01*
X3824973Y3226833D01*
X3666289Y3464321D01*
X3464321Y3666289D01*
X3226833Y3824973D01*
X2962949Y3934277D01*
X2682813Y3990000D01*
X2397187Y3990000D01*
X2117051Y3934277D01*
X1853167Y3824973D01*
X1615679Y3666289D01*
X1413711Y3464321D01*
X1255027Y3226833D01*
X1145723Y2962949D01*
X1090000Y2682813D01*
X500000Y2682813D01*
X500000Y21933162D01*
X2641000Y21933162D01*
X2641000Y21627838D01*
X2700565Y21328382D01*
X2817408Y21046300D01*
X2987036Y20792432D01*
X3202932Y20576536D01*
X3456800Y20406908D01*
X3738882Y20290065D01*
X4038338Y20230500D01*
X4343662Y20230500D01*
X4643118Y20290065D01*
X4925200Y20406908D01*
X5029353Y20476500D01*
X7858982Y20476500D01*
X7848472Y15505000D01*
X6783294Y15505000D01*
X5740910Y16547384D01*
X5741000Y16547838D01*
X5741000Y16853162D01*
X5681435Y17152618D01*
X5564592Y17434700D01*
X5394964Y17688568D01*
X5179068Y17904464D01*
X4925200Y18074092D01*
X4643118Y18190935D01*
X4343662Y18250500D01*
X4038338Y18250500D01*
X3738882Y18190935D01*
X3456800Y18074092D01*
X3202932Y17904464D01*
X2987036Y17688568D01*
X2817408Y17434700D01*
X2700565Y17152618D01*
X2641000Y16853162D01*
X2641000Y16547838D01*
X2700565Y16248382D01*
X2817408Y15966300D01*
X2987036Y15712432D01*
X3202932Y15496536D01*
X3301763Y15430500D01*
X3202932Y15364464D01*
X2987036Y15148568D01*
X2817408Y14894700D01*
X2700565Y14612618D01*
X2641000Y14313162D01*
X2641000Y14007838D01*
X2700565Y13708382D01*
X2817408Y13426300D01*
X2987036Y13172432D01*
X3202932Y12956536D01*
X3301763Y12890500D01*
X3202932Y12824464D01*
X2987036Y12608568D01*
X2817408Y12354700D01*
X2700565Y12072618D01*
X2641000Y11773162D01*
X2641000Y11467838D01*
X2700565Y11168382D01*
X2817408Y10886300D01*
X2987036Y10632432D01*
X3202932Y10416536D01*
X3301763Y10350500D01*
X3202932Y10284464D01*
X2987036Y10068568D01*
X2817408Y9814700D01*
X2700565Y9532618D01*
X2641000Y9233162D01*
X2641000Y8927838D01*
X2700565Y8628382D01*
X2817408Y8346300D01*
X2987036Y8092432D01*
X3202932Y7876536D01*
X3456800Y7706908D01*
X3738882Y7590065D01*
X4038338Y7530500D01*
X4343662Y7530500D01*
X4643118Y7590065D01*
X4925200Y7706908D01*
X5179068Y7876536D01*
X5394964Y8092432D01*
X5564592Y8346300D01*
X5681435Y8628382D01*
X5741000Y8927838D01*
X5741000Y9233162D01*
X5730872Y9284080D01*
X6341792Y9895000D01*
X7836611Y9895000D01*
X7835125Y9191942D01*
X7837635Y9164301D01*
X7845799Y9136052D01*
X7859318Y9109939D01*
X7877672Y9086965D01*
X7900155Y9068013D01*
X7925903Y9053811D01*
X7953927Y9044905D01*
X7983150Y9041638D01*
X15598000Y8941365D01*
X15598000Y6635750D01*
X15600849Y6606652D01*
X15609353Y6578504D01*
X15623186Y6552555D01*
X15641814Y6529804D01*
X15664524Y6511124D01*
X18400961Y4678227D01*
X18311408Y4544200D01*
X18194565Y4262118D01*
X18135000Y3962662D01*
X18135000Y3657338D01*
X18194565Y3357882D01*
X18311408Y3075800D01*
X18481036Y2821932D01*
X18696932Y2606036D01*
X18950800Y2436408D01*
X19232882Y2319565D01*
X19292190Y2307768D01*
X19319692Y2293068D01*
X19498768Y2238746D01*
X19685000Y2220404D01*
X19871231Y2238746D01*
X20050307Y2293068D01*
X20077808Y2307768D01*
X20137118Y2319565D01*
X20419200Y2436408D01*
X20673068Y2606036D01*
X20888964Y2821932D01*
X20955000Y2920763D01*
X21021036Y2821932D01*
X21236932Y2606036D01*
X21490800Y2436408D01*
X21772882Y2319565D01*
X21832190Y2307768D01*
X21859692Y2293068D01*
X22038768Y2238746D01*
X22225000Y2220404D01*
X22411231Y2238746D01*
X22590307Y2293068D01*
X22617808Y2307768D01*
X22677118Y2319565D01*
X22959200Y2436408D01*
X23213068Y2606036D01*
X23428964Y2821932D01*
X23495000Y2920763D01*
X23561036Y2821932D01*
X23776932Y2606036D01*
X24030800Y2436408D01*
X24312882Y2319565D01*
X24612338Y2260000D01*
X24917662Y2260000D01*
X25217118Y2319565D01*
X25499200Y2436408D01*
X25753068Y2606036D01*
X25829845Y2682813D01*
X34364000Y2682813D01*
X34364000Y2397187D01*
X34419723Y2117051D01*
X34529027Y1853167D01*
X34687711Y1615679D01*
X34889679Y1413711D01*
X35127167Y1255027D01*
X35391051Y1145723D01*
X35671187Y1090000D01*
X35956813Y1090000D01*
X36236949Y1145723D01*
X36500833Y1255027D01*
X36738321Y1413711D01*
X36940289Y1615679D01*
X37098973Y1853167D01*
X37208277Y2117051D01*
X37264000Y2397187D01*
X37264000Y2682813D01*
X37208277Y2962949D01*
X37098973Y3226833D01*
X36940289Y3464321D01*
X36738321Y3666289D01*
X36500833Y3824973D01*
X36236949Y3934277D01*
X35956813Y3990000D01*
X35671187Y3990000D01*
X35391051Y3934277D01*
X35127167Y3824973D01*
X34889679Y3666289D01*
X34687711Y3464321D01*
X34529027Y3226833D01*
X34419723Y2962949D01*
X34364000Y2682813D01*
X25829845Y2682813D01*
X25968964Y2821932D01*
X26138592Y3075800D01*
X26255435Y3357882D01*
X26315000Y3657338D01*
X26315000Y3962662D01*
X26255435Y4262118D01*
X26138592Y4544200D01*
X25968964Y4798068D01*
X25897767Y4869265D01*
X25990493Y4961990D01*
X33424336Y4961990D01*
X33470990Y4957395D01*
X33517644Y4961990D01*
X33517655Y4961990D01*
X33657222Y4975736D01*
X33836298Y5030058D01*
X34001335Y5118272D01*
X34145991Y5236989D01*
X34175740Y5273238D01*
X35690757Y6788254D01*
X35727001Y6817999D01*
X35845718Y6962655D01*
X35925544Y7111999D01*
X35933932Y7127691D01*
X35988254Y7306767D01*
X35998141Y7407155D01*
X36002000Y7446335D01*
X36002000Y7446343D01*
X36006595Y7493000D01*
X36002000Y7539657D01*
X36002000Y7647968D01*
X36192464Y7838432D01*
X36362092Y8092300D01*
X36478935Y8374382D01*
X36538500Y8673838D01*
X36538500Y8979162D01*
X36478935Y9278618D01*
X36362092Y9560700D01*
X36192464Y9814568D01*
X36002000Y10005032D01*
X36002000Y10187968D01*
X36192464Y10378432D01*
X36362092Y10632300D01*
X36478935Y10914382D01*
X36538500Y11213838D01*
X36538500Y11519162D01*
X36478935Y11818618D01*
X36362092Y12100700D01*
X36192464Y12354568D01*
X35976568Y12570464D01*
X35722700Y12740092D01*
X35440618Y12856935D01*
X35141162Y12916500D01*
X34835838Y12916500D01*
X34536382Y12856935D01*
X34254300Y12740092D01*
X34000432Y12570464D01*
X33784536Y12354568D01*
X33718500Y12255737D01*
X33652464Y12354568D01*
X33436568Y12570464D01*
X33182700Y12740092D01*
X32900618Y12856935D01*
X32601162Y12916500D01*
X32295838Y12916500D01*
X31996382Y12856935D01*
X31714300Y12740092D01*
X31460432Y12570464D01*
X31244536Y12354568D01*
X31074908Y12100700D01*
X30958065Y11818618D01*
X30956052Y11808500D01*
X28635854Y11808500D01*
X28640585Y14046288D01*
X28777167Y13955027D01*
X29041051Y13845723D01*
X29321187Y13790000D01*
X29606813Y13790000D01*
X29886949Y13845723D01*
X30150833Y13955027D01*
X30388321Y14113711D01*
X30564610Y14290000D01*
X33481346Y14290000D01*
X33528000Y14285405D01*
X33574654Y14290000D01*
X33574665Y14290000D01*
X33714232Y14303746D01*
X33893308Y14358068D01*
X34058345Y14446282D01*
X34203001Y14564999D01*
X34232750Y14601248D01*
X35627257Y15995754D01*
X35663501Y16025499D01*
X35707876Y16079569D01*
X35782217Y16170154D01*
X35819715Y16240307D01*
X35870432Y16335192D01*
X35886764Y16389031D01*
X35976568Y16449036D01*
X36192464Y16664932D01*
X36362092Y16918800D01*
X36478935Y17200882D01*
X36538500Y17500338D01*
X36538500Y17805662D01*
X36478935Y18105118D01*
X36362092Y18387200D01*
X36192464Y18641068D01*
X35976568Y18856964D01*
X35938500Y18882400D01*
X35938500Y18963600D01*
X35976568Y18989036D01*
X36192464Y19204932D01*
X36362092Y19458800D01*
X36478935Y19740882D01*
X36538500Y20040338D01*
X36538500Y20345662D01*
X36478935Y20645118D01*
X36362092Y20927200D01*
X36192464Y21181068D01*
X35976568Y21396964D01*
X35722700Y21566592D01*
X35440618Y21683435D01*
X35141162Y21743000D01*
X34835838Y21743000D01*
X34536382Y21683435D01*
X34254300Y21566592D01*
X34000432Y21396964D01*
X33784536Y21181068D01*
X33614908Y20927200D01*
X33498065Y20645118D01*
X33438500Y20345662D01*
X33438500Y20040338D01*
X33498065Y19740882D01*
X33614908Y19458800D01*
X33784536Y19204932D01*
X34000432Y18989036D01*
X34038500Y18963600D01*
X34038500Y18882400D01*
X34000432Y18856964D01*
X33784536Y18641068D01*
X33718500Y18542237D01*
X33652464Y18641068D01*
X33436568Y18856964D01*
X33182700Y19026592D01*
X32900618Y19143435D01*
X32601162Y19203000D01*
X32295838Y19203000D01*
X31996382Y19143435D01*
X31714300Y19026592D01*
X31460432Y18856964D01*
X31269968Y18666500D01*
X30615560Y18666500D01*
X30590289Y18704321D01*
X30388321Y18906289D01*
X30150833Y19064973D01*
X29886949Y19174277D01*
X29606813Y19230000D01*
X29321187Y19230000D01*
X29041051Y19174277D01*
X28777167Y19064973D01*
X28651017Y18980682D01*
X28659353Y22923747D01*
X28777167Y22845027D01*
X29041051Y22735723D01*
X29321187Y22680000D01*
X29606813Y22680000D01*
X29886949Y22735723D01*
X30150833Y22845027D01*
X30388321Y23003711D01*
X30590289Y23205679D01*
X30748973Y23443167D01*
X30858277Y23707051D01*
X30914000Y23987187D01*
X30914000Y24272813D01*
X30858277Y24552949D01*
X30748973Y24816833D01*
X30590289Y25054321D01*
X30388321Y25256289D01*
X30150833Y25414973D01*
X29886949Y25524277D01*
X29606813Y25580000D01*
X29321187Y25580000D01*
X29041051Y25524277D01*
X28777167Y25414973D01*
X28539679Y25256289D01*
X28363390Y25080000D01*
X21612900Y25080000D01*
X21587464Y25118068D01*
X21371568Y25333964D01*
X21117700Y25503592D01*
X20835618Y25620435D01*
X20536162Y25680000D01*
X20230838Y25680000D01*
X19931382Y25620435D01*
X19649300Y25503592D01*
X19395432Y25333964D01*
X19179536Y25118068D01*
X19113500Y25019237D01*
X19047464Y25118068D01*
X18831568Y25333964D01*
X18577700Y25503592D01*
X18295618Y25620435D01*
X17996162Y25680000D01*
X17690838Y25680000D01*
X17391382Y25620435D01*
X17109300Y25503592D01*
X16855432Y25333964D01*
X16639536Y25118068D01*
X16573500Y25019237D01*
X16507464Y25118068D01*
X16291568Y25333964D01*
X16037700Y25503592D01*
X15755618Y25620435D01*
X15456162Y25680000D01*
X15150838Y25680000D01*
X14851382Y25620435D01*
X14569300Y25503592D01*
X14315432Y25333964D01*
X14099536Y25118068D01*
X13929908Y24864200D01*
X13813065Y24582118D01*
X13753735Y24283845D01*
X8018850Y24359362D01*
X7987923Y24356554D01*
X7959766Y24348078D01*
X7933803Y24334271D01*
X7911033Y24315665D01*
X7892331Y24292974D01*
X7878415Y24267070D01*
X7869819Y24238950D01*
X7866875Y24209692D01*
X7862999Y22376500D01*
X5621837Y22376500D01*
X5564592Y22514700D01*
X5394964Y22768568D01*
X5179068Y22984464D01*
X4925200Y23154092D01*
X4643118Y23270935D01*
X4343662Y23330500D01*
X4038338Y23330500D01*
X3738882Y23270935D01*
X3456800Y23154092D01*
X3202932Y22984464D01*
X2987036Y22768568D01*
X2817408Y22514700D01*
X2700565Y22232618D01*
X2641000Y21933162D01*
X500000Y21933162D01*
X500000Y26812813D01*
X1090000Y26812813D01*
X1090000Y26527187D01*
X1145723Y26247051D01*
X1255027Y25983167D01*
X1413711Y25745679D01*
X1615679Y25543711D01*
X1853167Y25385027D01*
X2117051Y25275723D01*
X2397187Y25220000D01*
X2682813Y25220000D01*
X2962949Y25275723D01*
X3226833Y25385027D01*
X3464321Y25543711D01*
X3666289Y25745679D01*
X3824973Y25983167D01*
X3934277Y26247051D01*
X3990000Y26527187D01*
X3990000Y26812813D01*
X34364000Y26812813D01*
X34364000Y26527187D01*
X34419723Y26247051D01*
X34529027Y25983167D01*
X34687711Y25745679D01*
X34889679Y25543711D01*
X35127167Y25385027D01*
X35391051Y25275723D01*
X35671187Y25220000D01*
X35956813Y25220000D01*
X36236949Y25275723D01*
X36500833Y25385027D01*
X36738321Y25543711D01*
X36940289Y25745679D01*
X37098973Y25983167D01*
X37208277Y26247051D01*
X37264000Y26527187D01*
X37264000Y26812813D01*
X37208277Y27092949D01*
X37098973Y27356833D01*
X36940289Y27594321D01*
X36738321Y27796289D01*
X36500833Y27954973D01*
X36236949Y28064277D01*
X35956813Y28120000D01*
X35671187Y28120000D01*
X35391051Y28064277D01*
X35127167Y27954973D01*
X34889679Y27796289D01*
X34687711Y27594321D01*
X34529027Y27356833D01*
X34419723Y27092949D01*
X34364000Y26812813D01*
X3990000Y26812813D01*
X3934277Y27092949D01*
X3824973Y27356833D01*
X3666289Y27594321D01*
X3464321Y27796289D01*
X3226833Y27954973D01*
X2962949Y28064277D01*
X2682813Y28120000D01*
X2397187Y28120000D01*
X2117051Y28064277D01*
X1853167Y27954973D01*
X1615679Y27796289D01*
X1413711Y27594321D01*
X1255027Y27356833D01*
X1145723Y27092949D01*
X1090000Y26812813D01*
X500000Y26812813D01*
X500000Y28710000D01*
X38870000Y28710000D01*
X38870001Y500000D01*
%TD*%
M02*
