%TF.GenerationSoftware,KiCad,Pcbnew,(5.1.6)-1*%
%TF.CreationDate,2025-08-30T03:37:39-05:00*%
%TF.ProjectId,max3232_board,6d617833-3233-4325-9f62-6f6172642e6b,rev?*%
%TF.SameCoordinates,PX1bdb590PY3072580*%
%TF.FileFunction,Soldermask,Bot*%
%TF.FilePolarity,Negative*%
%FSLAX46Y46*%
G04 Gerber Fmt 4.6, Leading zero omitted, Abs format (unit mm)*
G04 Created by KiCad (PCBNEW (5.1.6)-1) date 2025-08-30 03:37:39*
%MOMM*%
%LPD*%
G01*
G04 APERTURE LIST*
%ADD10C,2.000000*%
%ADD11C,2.200000*%
G04 APERTURE END LIST*
D10*
%TO.C,REF\u002A\u002A*%
X35814000Y26670000D03*
%TD*%
%TO.C,REF\u002A\u002A*%
X35814000Y2540000D03*
%TD*%
%TO.C,REF\u002A\u002A*%
X2540000Y2540000D03*
%TD*%
%TO.C,REF\u002A\u002A*%
X2540000Y26670000D03*
%TD*%
%TO.C,C1*%
G36*
G01*
X27358500Y18120000D02*
X26108500Y18120000D01*
G75*
G02*
X25858500Y18370000I0J250000D01*
G01*
X25858500Y19295000D01*
G75*
G02*
X26108500Y19545000I250000J0D01*
G01*
X27358500Y19545000D01*
G75*
G02*
X27608500Y19295000I0J-250000D01*
G01*
X27608500Y18370000D01*
G75*
G02*
X27358500Y18120000I-250000J0D01*
G01*
G37*
G36*
G01*
X27358500Y21095000D02*
X26108500Y21095000D01*
G75*
G02*
X25858500Y21345000I0J250000D01*
G01*
X25858500Y22270000D01*
G75*
G02*
X26108500Y22520000I250000J0D01*
G01*
X27358500Y22520000D01*
G75*
G02*
X27608500Y22270000I0J-250000D01*
G01*
X27608500Y21345000D01*
G75*
G02*
X27358500Y21095000I-250000J0D01*
G01*
G37*
%TD*%
%TO.C,C2*%
G36*
G01*
X26175000Y12075000D02*
X26175000Y13325000D01*
G75*
G02*
X26425000Y13575000I250000J0D01*
G01*
X27350000Y13575000D01*
G75*
G02*
X27600000Y13325000I0J-250000D01*
G01*
X27600000Y12075000D01*
G75*
G02*
X27350000Y11825000I-250000J0D01*
G01*
X26425000Y11825000D01*
G75*
G02*
X26175000Y12075000I0J250000D01*
G01*
G37*
G36*
G01*
X23200000Y12075000D02*
X23200000Y13325000D01*
G75*
G02*
X23450000Y13575000I250000J0D01*
G01*
X24375000Y13575000D01*
G75*
G02*
X24625000Y13325000I0J-250000D01*
G01*
X24625000Y12075000D01*
G75*
G02*
X24375000Y11825000I-250000J0D01*
G01*
X23450000Y11825000D01*
G75*
G02*
X23200000Y12075000I0J250000D01*
G01*
G37*
%TD*%
%TO.C,C3*%
G36*
G01*
X24691500Y18120000D02*
X23441500Y18120000D01*
G75*
G02*
X23191500Y18370000I0J250000D01*
G01*
X23191500Y19295000D01*
G75*
G02*
X23441500Y19545000I250000J0D01*
G01*
X24691500Y19545000D01*
G75*
G02*
X24941500Y19295000I0J-250000D01*
G01*
X24941500Y18370000D01*
G75*
G02*
X24691500Y18120000I-250000J0D01*
G01*
G37*
G36*
G01*
X24691500Y21095000D02*
X23441500Y21095000D01*
G75*
G02*
X23191500Y21345000I0J250000D01*
G01*
X23191500Y22270000D01*
G75*
G02*
X23441500Y22520000I250000J0D01*
G01*
X24691500Y22520000D01*
G75*
G02*
X24941500Y22270000I0J-250000D01*
G01*
X24941500Y21345000D01*
G75*
G02*
X24691500Y21095000I-250000J0D01*
G01*
G37*
%TD*%
%TO.C,C4*%
G36*
G01*
X27600000Y17135000D02*
X27600000Y15885000D01*
G75*
G02*
X27350000Y15635000I-250000J0D01*
G01*
X26425000Y15635000D01*
G75*
G02*
X26175000Y15885000I0J250000D01*
G01*
X26175000Y17135000D01*
G75*
G02*
X26425000Y17385000I250000J0D01*
G01*
X27350000Y17385000D01*
G75*
G02*
X27600000Y17135000I0J-250000D01*
G01*
G37*
G36*
G01*
X24625000Y17135000D02*
X24625000Y15885000D01*
G75*
G02*
X24375000Y15635000I-250000J0D01*
G01*
X23450000Y15635000D01*
G75*
G02*
X23200000Y15885000I0J250000D01*
G01*
X23200000Y17135000D01*
G75*
G02*
X23450000Y17385000I250000J0D01*
G01*
X24375000Y17385000D01*
G75*
G02*
X24625000Y17135000I0J-250000D01*
G01*
G37*
%TD*%
%TO.C,C5*%
G36*
G01*
X10277000Y20714000D02*
X9027000Y20714000D01*
G75*
G02*
X8777000Y20964000I0J250000D01*
G01*
X8777000Y21889000D01*
G75*
G02*
X9027000Y22139000I250000J0D01*
G01*
X10277000Y22139000D01*
G75*
G02*
X10527000Y21889000I0J-250000D01*
G01*
X10527000Y20964000D01*
G75*
G02*
X10277000Y20714000I-250000J0D01*
G01*
G37*
G36*
G01*
X10277000Y17739000D02*
X9027000Y17739000D01*
G75*
G02*
X8777000Y17989000I0J250000D01*
G01*
X8777000Y18914000D01*
G75*
G02*
X9027000Y19164000I250000J0D01*
G01*
X10277000Y19164000D01*
G75*
G02*
X10527000Y18914000I0J-250000D01*
G01*
X10527000Y17989000D01*
G75*
G02*
X10277000Y17739000I-250000J0D01*
G01*
G37*
%TD*%
D11*
%TO.C,J1*%
X4191000Y9080500D03*
X4191000Y11620500D03*
X4191000Y14160500D03*
X4191000Y16700500D03*
X4191000Y19240500D03*
X4191000Y21780500D03*
%TD*%
%TO.C,J2*%
X32448500Y20193000D03*
X32448500Y17653000D03*
%TD*%
%TO.C,J3*%
X32448500Y8826500D03*
X32448500Y11366500D03*
%TD*%
%TO.C,J4*%
X34988500Y20193000D03*
X34988500Y17653000D03*
%TD*%
%TO.C,J5*%
X34988500Y8826500D03*
X34988500Y11366500D03*
%TD*%
%TO.C,J6*%
X15303500Y24130000D03*
X12763500Y24130000D03*
%TD*%
%TO.C,J7*%
X17843500Y24130000D03*
X20383500Y24130000D03*
%TD*%
%TO.C,J8*%
X24765000Y3810000D03*
X22225000Y3810000D03*
X19685000Y3810000D03*
%TD*%
%TO.C,U1*%
G36*
G01*
X20760000Y19910000D02*
X20760000Y19460000D01*
G75*
G02*
X20535000Y19235000I-225000J0D01*
G01*
X18985000Y19235000D01*
G75*
G02*
X18760000Y19460000I0J225000D01*
G01*
X18760000Y19910000D01*
G75*
G02*
X18985000Y20135000I225000J0D01*
G01*
X20535000Y20135000D01*
G75*
G02*
X20760000Y19910000I0J-225000D01*
G01*
G37*
G36*
G01*
X20760000Y18640000D02*
X20760000Y18190000D01*
G75*
G02*
X20535000Y17965000I-225000J0D01*
G01*
X18985000Y17965000D01*
G75*
G02*
X18760000Y18190000I0J225000D01*
G01*
X18760000Y18640000D01*
G75*
G02*
X18985000Y18865000I225000J0D01*
G01*
X20535000Y18865000D01*
G75*
G02*
X20760000Y18640000I0J-225000D01*
G01*
G37*
G36*
G01*
X20760000Y17370000D02*
X20760000Y16920000D01*
G75*
G02*
X20535000Y16695000I-225000J0D01*
G01*
X18985000Y16695000D01*
G75*
G02*
X18760000Y16920000I0J225000D01*
G01*
X18760000Y17370000D01*
G75*
G02*
X18985000Y17595000I225000J0D01*
G01*
X20535000Y17595000D01*
G75*
G02*
X20760000Y17370000I0J-225000D01*
G01*
G37*
G36*
G01*
X20760000Y16100000D02*
X20760000Y15650000D01*
G75*
G02*
X20535000Y15425000I-225000J0D01*
G01*
X18985000Y15425000D01*
G75*
G02*
X18760000Y15650000I0J225000D01*
G01*
X18760000Y16100000D01*
G75*
G02*
X18985000Y16325000I225000J0D01*
G01*
X20535000Y16325000D01*
G75*
G02*
X20760000Y16100000I0J-225000D01*
G01*
G37*
G36*
G01*
X20760000Y14830000D02*
X20760000Y14380000D01*
G75*
G02*
X20535000Y14155000I-225000J0D01*
G01*
X18985000Y14155000D01*
G75*
G02*
X18760000Y14380000I0J225000D01*
G01*
X18760000Y14830000D01*
G75*
G02*
X18985000Y15055000I225000J0D01*
G01*
X20535000Y15055000D01*
G75*
G02*
X20760000Y14830000I0J-225000D01*
G01*
G37*
G36*
G01*
X20760000Y13560000D02*
X20760000Y13110000D01*
G75*
G02*
X20535000Y12885000I-225000J0D01*
G01*
X18985000Y12885000D01*
G75*
G02*
X18760000Y13110000I0J225000D01*
G01*
X18760000Y13560000D01*
G75*
G02*
X18985000Y13785000I225000J0D01*
G01*
X20535000Y13785000D01*
G75*
G02*
X20760000Y13560000I0J-225000D01*
G01*
G37*
G36*
G01*
X20760000Y12290000D02*
X20760000Y11840000D01*
G75*
G02*
X20535000Y11615000I-225000J0D01*
G01*
X18985000Y11615000D01*
G75*
G02*
X18760000Y11840000I0J225000D01*
G01*
X18760000Y12290000D01*
G75*
G02*
X18985000Y12515000I225000J0D01*
G01*
X20535000Y12515000D01*
G75*
G02*
X20760000Y12290000I0J-225000D01*
G01*
G37*
G36*
G01*
X20760000Y11020000D02*
X20760000Y10570000D01*
G75*
G02*
X20535000Y10345000I-225000J0D01*
G01*
X18985000Y10345000D01*
G75*
G02*
X18760000Y10570000I0J225000D01*
G01*
X18760000Y11020000D01*
G75*
G02*
X18985000Y11245000I225000J0D01*
G01*
X20535000Y11245000D01*
G75*
G02*
X20760000Y11020000I0J-225000D01*
G01*
G37*
G36*
G01*
X14260000Y11020000D02*
X14260000Y10570000D01*
G75*
G02*
X14035000Y10345000I-225000J0D01*
G01*
X12485000Y10345000D01*
G75*
G02*
X12260000Y10570000I0J225000D01*
G01*
X12260000Y11020000D01*
G75*
G02*
X12485000Y11245000I225000J0D01*
G01*
X14035000Y11245000D01*
G75*
G02*
X14260000Y11020000I0J-225000D01*
G01*
G37*
G36*
G01*
X14260000Y12290000D02*
X14260000Y11840000D01*
G75*
G02*
X14035000Y11615000I-225000J0D01*
G01*
X12485000Y11615000D01*
G75*
G02*
X12260000Y11840000I0J225000D01*
G01*
X12260000Y12290000D01*
G75*
G02*
X12485000Y12515000I225000J0D01*
G01*
X14035000Y12515000D01*
G75*
G02*
X14260000Y12290000I0J-225000D01*
G01*
G37*
G36*
G01*
X14260000Y13560000D02*
X14260000Y13110000D01*
G75*
G02*
X14035000Y12885000I-225000J0D01*
G01*
X12485000Y12885000D01*
G75*
G02*
X12260000Y13110000I0J225000D01*
G01*
X12260000Y13560000D01*
G75*
G02*
X12485000Y13785000I225000J0D01*
G01*
X14035000Y13785000D01*
G75*
G02*
X14260000Y13560000I0J-225000D01*
G01*
G37*
G36*
G01*
X14260000Y14830000D02*
X14260000Y14380000D01*
G75*
G02*
X14035000Y14155000I-225000J0D01*
G01*
X12485000Y14155000D01*
G75*
G02*
X12260000Y14380000I0J225000D01*
G01*
X12260000Y14830000D01*
G75*
G02*
X12485000Y15055000I225000J0D01*
G01*
X14035000Y15055000D01*
G75*
G02*
X14260000Y14830000I0J-225000D01*
G01*
G37*
G36*
G01*
X14260000Y16100000D02*
X14260000Y15650000D01*
G75*
G02*
X14035000Y15425000I-225000J0D01*
G01*
X12485000Y15425000D01*
G75*
G02*
X12260000Y15650000I0J225000D01*
G01*
X12260000Y16100000D01*
G75*
G02*
X12485000Y16325000I225000J0D01*
G01*
X14035000Y16325000D01*
G75*
G02*
X14260000Y16100000I0J-225000D01*
G01*
G37*
G36*
G01*
X14260000Y17370000D02*
X14260000Y16920000D01*
G75*
G02*
X14035000Y16695000I-225000J0D01*
G01*
X12485000Y16695000D01*
G75*
G02*
X12260000Y16920000I0J225000D01*
G01*
X12260000Y17370000D01*
G75*
G02*
X12485000Y17595000I225000J0D01*
G01*
X14035000Y17595000D01*
G75*
G02*
X14260000Y17370000I0J-225000D01*
G01*
G37*
G36*
G01*
X14260000Y18640000D02*
X14260000Y18190000D01*
G75*
G02*
X14035000Y17965000I-225000J0D01*
G01*
X12485000Y17965000D01*
G75*
G02*
X12260000Y18190000I0J225000D01*
G01*
X12260000Y18640000D01*
G75*
G02*
X12485000Y18865000I225000J0D01*
G01*
X14035000Y18865000D01*
G75*
G02*
X14260000Y18640000I0J-225000D01*
G01*
G37*
G36*
G01*
X14260000Y19910000D02*
X14260000Y19460000D01*
G75*
G02*
X14035000Y19235000I-225000J0D01*
G01*
X12485000Y19235000D01*
G75*
G02*
X12260000Y19460000I0J225000D01*
G01*
X12260000Y19910000D01*
G75*
G02*
X12485000Y20135000I225000J0D01*
G01*
X14035000Y20135000D01*
G75*
G02*
X14260000Y19910000I0J-225000D01*
G01*
G37*
%TD*%
D10*
X29464000Y17780000D03*
X29464000Y24130000D03*
X22796500Y8001000D03*
X17145000Y8001000D03*
X29400500Y7620000D03*
X29464000Y15240000D03*
M02*
