M48
; DRILL file {KiCad (5.1.6)-1} date 08/30/25 03:37:51
; FORMAT={-:-/ absolute / metric / decimal}
; #@! TF.CreationDate,2025-08-30T03:37:51-05:00
; #@! TF.GenerationSoftware,Kicad,Pcbnew,(5.1.6)-1
FMAT,2
METRIC
T1C0.800
T2C1.000
T3C2.000
%
G90
G05
T1
X17.145Y8.001
X22.796Y8.001
X29.4Y7.62
X29.464Y24.13
X29.464Y17.78
X29.464Y15.24
X19.685Y3.81
X22.225Y3.81
X24.765Y3.81
X17.843Y24.13
X20.383Y24.13
X12.763Y24.13
X15.303Y24.13
T2
X34.989Y11.367
X34.989Y8.826
X4.191Y21.78
X4.191Y19.241
X4.191Y16.7
X4.191Y14.16
X4.191Y11.62
X4.191Y9.08
X32.448Y11.367
X32.448Y8.826
X32.448Y20.193
X32.448Y17.653
X34.989Y20.193
X34.989Y17.653
T3
X2.54Y26.67
X35.814Y26.67
X2.54Y2.54
X35.814Y2.54
T0
M30
